<svg xmlns="http://www.w3.org/2000/svg" viewBox="0 0 180.2 180.19"><defs><style>.cls-1{fill:#fff;}.cls-2{fill:#b1935b;}</style></defs><g id="Layer_2" data-name="Layer 2"><g id="Layer_1-2" data-name="Layer 1"><circle class="cls-1" cx="90.1" cy="90.1" r="88.61"/><path class="cls-2" d="M84.76,68.42l1.69-.56a42.27,42.27,0,0,1,33.93,2.69c1,.52,1.2,1,.71,2s-1,2.26-1.48,3.5c-.77-.39-1.39-.74-2-1C107.21,70.17,96.7,69.48,86,73.94a2,2,0,0,0-1.36,2.16c0,11.66,0,23.33,0,35,0,1.73,0,1.73-1.68,1.74-.88,0-1.76,0-2.64,0s-1.24-.33-1.23-1.25c0-4,0-8,0-12V78.12c-.53.36-.88.57-1.19.83a33.79,33.79,0,0,0-12,23.35c-.78,8.49.9,16.4,5.74,23.49,5.45,8,13.16,12.42,22.65,13.8A41.68,41.68,0,0,0,116.19,137c2.51-1,2.5-1,2.5-3.7,0-5.87,0-11.75,0-17.62,0-1.16-.36-1.5-1.5-1.49-4.84,0-9.68,0-14.52,0-1.18,0-1.71-.3-1.58-1.55a14,14,0,0,0,0-2.51c-.07-1,.36-1.23,1.27-1.22q10.26,0,20.52,0c.93,0,1.27.28,1.27,1.22q0,13.91,0,27.81c0,.94-.52,1.33-1.21,1.72a46.42,46.42,0,0,1-13.43,4.68c-10,2-19.79,1.2-28.95-3.53-11.61-6-18.16-15.72-20-28.57a41.38,41.38,0,0,1,6-28.81A37.16,37.16,0,0,1,78,72.07a2.23,2.23,0,0,0,1.14-2.14c0-9.47,0-18.94,0-28.41,0-1.55,0-1.55-1.62-1.55-6.64,0-13.27,0-19.91,0-1.22,0-1.67-.35-1.54-1.56A13.63,13.63,0,0,0,56,36c-.07-1,.37-1.23,1.27-1.23q24.66,0,49.32,0c1,0,1.39.28,1.32,1.29a21.18,21.18,0,0,0,0,2.76c0,.83-.29,1.13-1.12,1.12-2.56,0-5.12,0-7.68,0-4.4,0-8.8,0-13.2,0-1,0-1.32.27-1.32,1.28,0,8.67,0,17.34,0,26C84.66,67.58,84.72,67.93,84.76,68.42Z"/><path class="cls-2" d="M90.1,0a90.1,90.1,0,1,0,90.1,90.1A90.1,90.1,0,0,0,90.1,0Zm0,171.11a81,81,0,1,1,81-81A81,81,0,0,1,90.1,171.11Z"/></g></g></svg>