<svg xmlns="http://www.w3.org/2000/svg" xmlns:xlink="http://www.w3.org/1999/xlink" viewBox="0 0 105.92 107"><defs><style>.cls-1,.cls-2{fill:none;}.cls-2{clip-rule:evenodd;}.cls-3{clip-path:url(#clip-path);}.cls-4{fill:#af8f52;fill-rule:evenodd;}.cls-5{clip-path:url(#clip-path-2);}.cls-6{fill:#af8f54;}</style><clipPath id="clip-path"><rect class="cls-1" width="105.92" height="107"/></clipPath><clipPath id="clip-path-2"><path class="cls-2" d="M78.76,41.2H72.6V39.79H86.47V41.2h-6.2v8a10.9,10.9,0,0,1,6.45-.6A10.54,10.54,0,0,1,90.17,50c-.18.44-.35.88-.49,1.25-.91-.34-1.75-.73-2.64-1a9.17,9.17,0,0,0-6.51.51.43.43,0,0,0-.29.47q0,5,0,10v.39H78.78V51.86a9.06,9.06,0,0,0-2,2.12,10.28,10.28,0,0,0-1.62,6.63,9.39,9.39,0,0,0,2.9,6.28A8.6,8.6,0,0,0,83,69.17a11.21,11.21,0,0,0,5.26-.55c1.17-.41,1.17-.42,1.17-1.68V62H84.71V60.57h6.15v.37c0,2.56,0,5.11,0,7.67a.54.54,0,0,1-.31.55,12.54,12.54,0,0,1-4.36,1.45A11,11,0,0,1,80.27,70a10.08,10.08,0,0,1-6.46-8.53A11.82,11.82,0,0,1,76,52.55a10.77,10.77,0,0,1,2.54-2.41.55.55,0,0,0,.21-.39c0-2.78,0-5.55,0-8.33,0-.06,0-.11,0-.22"/></clipPath></defs><g id="Layer_2" data-name="Layer 2"><g id="Layer_1-2" data-name="Layer 1"><g class="cls-3"><path class="cls-4" d="M81.69,80.08a22.79,22.79,0,0,1-17-7.62A24.8,24.8,0,0,1,58,53.66,24.55,24.55,0,0,1,65.38,37a23.3,23.3,0,0,1,33.83.7,24.94,24.94,0,0,1,6.67,18.82A24.55,24.55,0,0,1,98.6,73.07a23,23,0,0,1-16.91,7m22-25C103.7,42.61,94,32.46,82,32.46S60.28,42.59,60.28,55.1,70,77.76,82,77.76,103.71,67.62,103.7,55.1"/><g class="cls-5"><rect class="cls-6" x="71.6" y="38.79" width="20.26" height="33.13"/></g><path class="cls-4" d="M28.47,91.87v1.4h-6.2v8a10.82,10.82,0,0,1,6.45-.6,10.38,10.38,0,0,1,3.44,1.37c-.17.45-.34.88-.48,1.26-.91-.34-1.75-.73-2.64-1a9.17,9.17,0,0,0-6.51.51.43.43,0,0,0-.29.47v3.84H20.78v-3.23a9.31,9.31,0,0,0-2,2.13,8.65,8.65,0,0,0-.63,1.1H16.57A11.66,11.66,0,0,1,18,104.63a10.38,10.38,0,0,1,2.54-2.41.61.61,0,0,0,.21-.39c0-2.78,0-5.55,0-8.33,0-.06,0-.11,0-.22H14.6V91.87ZM25.35,82.2a22.67,22.67,0,0,1,15.86,7.59,24.74,24.74,0,0,1,6.71,17.37H45.7v-.35C45.51,94.48,35.87,84.54,24,84.53S2.29,94.66,2.28,107.16H0c0-.47,0-1,0-1.43A24.54,24.54,0,0,1,7.38,89.09,22.72,22.72,0,0,1,25.35,82.2Z"/><path class="cls-4" d="M45.7,0V0C45.71,12.54,36,22.69,24,22.69S2.27,12.54,2.28,0V0H0A24.66,24.66,0,0,0,6.73,17.39a22.82,22.82,0,0,0,17,7.61A23.07,23.07,0,0,0,40.6,18,24.6,24.6,0,0,0,47.88,1.45c0-.49,0-1,0-1.45Z"/><path class="cls-4" d="M22.25,6.14v.39H20.78V0h1.46C22.25,2.05,22.25,4.09,22.25,6.14Z"/><path class="cls-4" d="M32.86,5.5v.37c0,2.55,0,5.11,0,7.66a.53.53,0,0,1-.31.55,12.56,12.56,0,0,1-4.36,1.46,11.09,11.09,0,0,1-5.92-.62,10.08,10.08,0,0,1-6.46-8.53A12.05,12.05,0,0,1,16.57,0h1.64a10.28,10.28,0,0,0-1,5.53,9.43,9.43,0,0,0,2.9,6.29A8.58,8.58,0,0,0,25,14.09a11.08,11.08,0,0,0,5.26-.55c1.17-.41,1.17-.42,1.17-1.68V7H26.71V5.5Z"/></g></g></g></svg>