<?xml version="1.0" encoding="UTF-8"?>
<svg width="106px" height="108px" viewBox="0 0 106 108" version="1.1" xmlns="http://www.w3.org/2000/svg" xmlns:xlink="http://www.w3.org/1999/xlink">
    <title>Group 3</title>
    <g id="Page-1" stroke="none" stroke-width="1" fill="none" fill-rule="evenodd">
        <g id="Group-3" transform="translate(0.000000, -3.000000)">
            <g id="Group" transform="translate(58.000000, 33.921195)">
                <path d="M45.7046794,25.0249349 C45.7036047,12.5261179 35.9871985,2.38305388 24.0085387,2.37660258 C12.0105341,2.37015742 2.27908205,12.5089226 2.27693184,25.0195613 C2.27370853,37.5387977 11.9933389,47.6840111 23.9881193,47.6850858 C35.9839744,47.6861605 45.7057541,37.5420218 45.7046794,25.0249349 M23.6947248,50 C17.2024331,49.9301442 11.4129983,47.4303808 6.7326588,42.3846417 C1.89326303,37.1658751 -0.324927707,30.8229673 0.03832252,23.5762328 C0.367182193,17.0398781 2.85082501,11.4395913 7.38285521,6.92905524 C12.3909796,1.94457432 18.4447918,-0.346696341 25.3529944,0.042346801 C31.5669376,0.391625865 36.9017723,2.95587155 41.2081145,7.63191219 C46.030315,12.867874 48.2495804,19.206483 47.8777325,26.4521429 C47.544574,32.935837 45.0813506,38.4974344 40.6030557,42.995074 C35.9775261,47.6420976 30.3890611,49.9559371 23.6947248,50" id="Fill-1249" fill="#B2935B"></path>
                <path d="M20.7572342,11.1220161 L14.6034744,11.1220161 L14.6034744,9.71092864 L28.4736147,9.71092864 L28.4736147,11.1155678 L22.272568,11.1155678 L22.272568,19.1274922 C24.3725412,18.2559066 26.528399,18.0914768 28.724021,18.5331804 C29.9319892,18.7771384 31.0733257,19.2263651 32.1652258,19.9055785 C31.993273,20.3472822 31.8223949,20.7857617 31.6762351,21.159759 C30.7745577,20.8201523 29.9266156,20.4332586 29.0432083,20.1817776 C26.8260923,19.5498512 24.649815,19.721804 22.5347959,20.6868889 C22.312332,20.7889858 22.2424762,20.9082781 22.2435509,21.1576096 C22.2521486,24.4848957 22.2489245,27.8132565 22.2489245,31.1405426 L22.2489245,31.528511 L20.7841018,31.528511 L20.7841018,21.7766396 C19.9888202,22.4182383 19.3515203,23.1028253 18.8292138,23.9002563 C17.5169992,25.9035061 17.0172614,28.1238462 17.2096336,30.5290356 C17.408454,33.010529 18.3369989,35.1319963 20.1102619,36.814984 C21.485884,38.1196757 23.1301824,38.8343544 24.9657782,39.08691 C26.7626847,39.3351668 28.5187523,39.1374211 30.2329065,38.5388105 C31.4032601,38.129348 31.4000359,38.1196757 31.4000359,36.8590469 L31.4000359,32.354959 L31.4000359,31.9454965 L26.7089494,31.9454965 L26.7089494,30.494645 L32.8573357,30.494645 L32.8573357,30.8654182 C32.8573357,33.4199915 32.8519621,35.9745648 32.8638205,38.5280635 C32.8659333,38.806412 32.7735087,38.9547213 32.5531942,39.0804618 C31.1883191,39.8553239 29.7202723,40.3013264 28.1941915,40.5345374 C26.1758958,40.8440524 24.180169,40.6968178 22.272568,39.9176568 C18.5390435,38.3926507 16.374588,35.51889 15.8103679,31.3898741 C15.3632907,28.1184727 16.0586247,25.1157474 18.0102887,22.4730483 C18.7185192,21.5154863 19.5772083,20.726653 20.5455173,20.060336 C20.6551372,19.9851067 20.7636824,19.8056309 20.7647571,19.6734423 C20.7765789,16.8953303 20.7733548,14.1172184 20.7733548,11.3380317 C20.7733548,11.2832218 20.7647571,11.2284118 20.7572342,11.1220161" id="Fill-1251" fill="#B2935C"></path>
            </g>
            <path d="M25.3528551,86.0423468 C31.5667983,86.3916259 36.901633,88.9558715 41.2079752,93.6319122 C45.7054401,98.515275 47.9387384,104.357777 47.9174609,111.000736 L45.704,111 L45.7016008,110.650685 C45.5089111,98.3242703 35.8672726,88.3829894 24.0083994,88.3766026 C12.0164739,88.3701607 2.28880459,98.4986513 2.27680335,111.000547 L3.14378056e-13,111.00096 C0.00144747142,110.53004 0.0141790519,110.05511 0.038183267,109.576233 C0.36704294,103.039878 2.85068576,97.4395913 7.38271595,92.9290552 C12.3908404,87.9445743 18.4446526,85.6533037 25.3528551,86.0423468 Z M28.4734755,95.7109286 L28.4734755,97.1155678 L22.2724287,97.1155678 L22.2724287,105.127492 C24.3724019,104.255907 26.5282598,104.091477 28.7238817,104.53318 C29.9318499,104.777138 31.0731864,105.226365 32.1650865,105.905578 C31.9931337,106.347282 31.8222557,106.785762 31.6760958,107.159759 C30.7744185,106.820152 29.9264764,106.433259 29.043069,106.181778 C26.825953,105.549851 24.6496758,105.721804 22.5346567,106.686889 C22.3121928,106.788986 22.242337,106.908278 22.2434117,107.15761 L22.248,111 L20.783,111 L20.7839626,107.77664 C19.988681,108.418238 19.351381,109.102825 18.8290745,109.900256 C18.5935434,110.259822 18.384188,110.626382 18.2003122,110.99975 L16.5671502,111.000005 C16.932475,110.125662 17.4123837,109.282468 18.0101494,108.473048 C18.7183799,107.515486 19.577069,106.726653 20.5453781,106.060336 C20.654998,105.985107 20.7635432,105.805631 20.7646179,105.673442 C20.7764396,102.89533 20.7732155,100.117218 20.7732155,97.3380317 C20.7732155,97.2832218 20.7646179,97.2284118 20.7570949,97.1220161 L14.6033352,97.1220161 L14.6033352,95.7109286 L28.4734755,95.7109286 Z" id="Combined-Shape" fill="#B2935B"></path>
            <path d="M47.8777325,5.29453326 C47.544574,11.7782274 45.0813506,17.3398248 40.6030557,21.8374644 C35.9775261,26.484488 30.3890611,28.7983275 23.6947248,28.8423904 C17.2024331,28.7725346 11.4129983,26.2727712 6.7326588,21.2270321 C2.21283298,16.3528873 -0.0205407233,10.4981648 0.000142336554,3.84235236 L2.27694265,3.84288656 C2.27693654,3.84924101 2.27693293,3.85559607 2.27693184,3.86195174 C2.27370853,16.3811881 11.9933389,26.5264015 23.9881193,26.5274762 C35.9839744,26.5285509 45.7057541,16.3844122 45.7046794,3.86732527 L45.704,3.842 L47.9176034,3.84212877 C47.9160823,4.32210459 47.9027908,4.80625937 47.8777325,5.29453326 Z M17.2096336,9.37142596 C17.408454,11.8529194 18.3369989,13.9743867 20.1102619,15.6573744 C21.485884,16.9620661 23.1301824,17.6767448 24.9657782,17.9293004 C26.7626847,18.1775572 28.5187523,17.9798115 30.2329065,17.3812009 C31.4032601,16.9717384 31.4000359,16.9620661 31.4000359,15.7014373 L31.4000359,10.7878869 L26.7089494,10.7878869 L26.7089494,9.33703541 L32.8573357,9.33703541 L32.8573357,9.70780857 C32.8573357,12.2623819 32.8519621,14.8169552 32.8638205,17.3704539 C32.8659333,17.6488024 32.7735087,17.7971117 32.5531942,17.9228522 C31.1883191,18.6977143 29.7202723,19.1437168 28.1941915,19.3769278 C26.1758958,19.6864428 24.180169,19.5392082 22.272568,18.7600472 C18.5390435,17.2350411 16.374588,14.3612804 15.8103679,10.2322645 C15.5002239,7.96284484 15.739854,5.82272298 16.5672895,3.84239548 L18.2004515,3.84213992 C17.3598998,5.54891516 17.0517906,7.39794712 17.2096336,9.37142596 Z M22.248,3.842 L22.2435509,-1.45661261e-13 C22.2521486,3.3272861 22.2489245,6.6556469 22.2489245,9.982933 L22.2489245,10.3709014 L20.7841018,10.3709014 L20.784,3.842 L22.248,3.842 Z" id="Combined-Shape" fill="#B2935B"></path>
        </g>
    </g>
</svg>